<?xml version="1.0" encoding="UTF-8"?>
<svg width="69px" height="43px" viewBox="0 0 69 43" version="1.1" xmlns="http://www.w3.org/2000/svg" xmlns:xlink="http://www.w3.org/1999/xlink">
    <!-- Generator: Sketch 49.2 (51160) - http://www.bohemiancoding.com/sketch -->
    <title>Company</title>
    <desc>Created with Sketch.</desc>
    <defs></defs>
    <g id="Page-1" stroke="none" stroke-width="1" fill="none" fill-rule="evenodd">
        <g id="Desktop" transform="translate(-19.000000, -8.000000)" fill="#000000">
            <g id="Logo" transform="translate(19.000000, 8.000000)">
                <path d="M1.66992188,32.1289062 L1.67675781,31.9306641 C1.72688827,30.568027 2.07096035,29.280605 2.70898438,28.0683594 C3.29687794,26.960932 4.03743043,26.0654331 4.93066406,25.3818359 C5.81478307,24.7073534 6.67610258,24.3701172 7.51464844,24.3701172 C8.15267246,24.3701172 8.65624815,24.5911436 9.02539062,25.0332031 C9.33984532,25.4160175 9.49707031,25.8854139 9.49707031,26.4414063 C9.49707031,27.1067742 9.25325765,27.7630176 8.765625,28.4101563 C8.4830715,28.783856 8.18229326,29.0527336 7.86328125,29.2167969 C7.71288987,29.2988285 7.57275456,29.3398438 7.44287109,29.3398438 C7.31298763,29.3398438 7.19335992,29.3125003 7.08398438,29.2578125 C6.97460883,29.2031247 6.87890666,29.134766 6.796875,29.0527344 C6.62825437,28.8749991 6.54394531,28.7154955 6.54394531,28.5742188 C6.54394531,28.432942 6.58040328,28.3349612 6.65332031,28.2802734 C7.40071988,27.7425103 7.90885282,27.1888049 8.17773438,26.6191406 C8.28255261,26.4003895 8.33496094,26.186199 8.33496094,25.9765625 C8.33496094,25.534503 8.12532762,25.3134766 7.70605469,25.3134766 C7.04980141,25.3134766 6.37305036,25.6712204 5.67578125,26.3867188 C5.02408528,27.0475293 4.47721575,27.8769481 4.03515625,28.875 C3.57486749,29.9003958 3.33105482,30.8414671 3.30371094,31.6982422 L3.296875,31.9580078 C3.296875,32.9834036 3.51334419,33.6555974 3.94628906,33.9746094 C4.10123775,34.0885422 4.28694553,34.1455078 4.50341797,34.1455078 C4.71989041,34.1455078 4.92382717,34.1181643 5.11523438,34.0634766 C5.30664158,34.0087888 5.49804592,33.9335942 5.68945312,33.8378906 C5.99935051,33.6783846 6.39583092,33.4026712 6.87890625,33.0107422 C7.02474031,32.8968093 7.14550733,32.9127597 7.24121094,33.0585938 C7.3232426,33.1770839 7.36425781,33.3138013 7.36425781,33.46875 C7.36425781,33.7285169 7.32893916,33.9051102 7.25830078,33.9985352 C7.18766241,34.0919601 7.06689539,34.2024733 6.89599609,34.3300781 C6.7250968,34.4576829 6.51660279,34.5761713 6.27050781,34.6855469 C5.69628619,34.9407565 5.1334663,35.0683594 4.58203125,35.0683594 C4.0305962,35.0683594 3.58626471,35.00114 3.24902344,34.8666992 C2.91178217,34.7322584 2.62695429,34.5397148 2.39453125,34.2890625 C1.91145592,33.760414 1.66992188,33.0403691 1.66992188,32.1289062 Z M9.59960938,34.5351562 C9.40820217,34.3528637 9.25781305,34.1215834 9.1484375,33.8413086 C9.03906195,33.5610338 8.98209638,33.2294941 8.97753906,32.8466797 C8.97298175,32.4638653 9.01969352,32.0764994 9.11767578,31.6845703 C9.21565804,31.2926413 9.35465405,30.9143898 9.53466797,30.5498047 C9.71468189,30.1852195 9.93115108,29.8434261 10.184082,29.5244141 C10.437013,29.2054021 10.7161443,28.92741 11.0214844,28.6904297 C11.6868523,28.1800105 12.3772751,27.9248047 13.0927734,27.9248047 C14.0315802,27.9248047 14.667316,28.3372355 15,29.1621094 C15.2369804,29.7591176 15.2506521,30.4814411 15.0410156,31.3291016 C14.8496084,32.1084023 14.4987005,32.82389 13.9882813,33.4755859 C13.4824193,34.1272819 12.8854201,34.5898424 12.1972656,34.8632812 C11.8509097,35.0000007 11.5102556,35.0683594 11.175293,35.0683594 C10.8403304,35.0683594 10.5418307,35.0250655 10.2797852,34.9384766 C10.0177396,34.8518876 9.79101658,34.7174488 9.59960938,34.5351562 Z M10.9052734,31.2197266 C10.768554,31.5569678 10.6603194,31.9033185 10.5805664,32.2587891 C10.5008134,32.6142596 10.4632161,32.9503565 10.4677734,33.2670898 C10.4723308,33.5838232 10.5213211,33.8321931 10.6147461,34.012207 C10.708171,34.192221 10.8596995,34.2822266 11.0693359,34.2822266 C11.2789724,34.2822266 11.4851878,34.2104499 11.6879883,34.0668945 C11.8907888,33.9233391 12.0878897,33.7330741 12.2792969,33.4960938 C12.4707041,33.2591134 12.6507153,32.9856786 12.8193359,32.6757812 C12.9879566,32.3658839 13.1360671,32.0423194 13.2636719,31.7050781 C13.5416681,30.9713505 13.6761068,30.3196643 13.6669922,29.75 C13.6669922,29.2486954 13.5644542,28.9296882 13.359375,28.7929688 C13.2773433,28.738281 13.1622729,28.7109375 13.0141602,28.7109375 C12.8660474,28.7109375 12.69629,28.7781569 12.5048828,28.9125977 C12.3134756,29.0470384 12.1220713,29.228189 11.9306641,29.4560547 C11.7392569,29.6839204 11.5546884,29.9505193 11.3769531,30.2558594 C11.1992179,30.5611994 11.0419929,30.8824853 10.9052734,31.2197266 Z M21.3164062,29.2167969 C21.052082,29.2167969 20.5690139,29.5996055 19.8671875,30.3652344 C19.3430963,30.9622426 18.9625663,31.4111313 18.7255859,31.7119141 L18.1103516,32.4912109 C17.8460273,32.9925155 17.6386726,33.4095035 17.4882812,33.7421875 L17.1191406,34.5351562 C17.023437,34.7311208 16.9402673,34.8689775 16.8696289,34.9487305 C16.7989905,35.0284835 16.7032884,35.0683594 16.5825195,35.0683594 C16.4617507,35.0683594 16.3455409,35.0467125 16.2338867,35.003418 C16.1222325,34.9601235 16.025391,34.9042972 15.9433594,34.8359375 C15.7701814,34.6901034 15.6835938,34.5305998 15.6835938,34.3574219 C15.6835938,34.2890622 15.7337235,34.1546234 15.8339844,33.9541016 L16.09375,33.4003906 C16.1757817,33.2363273 16.2714838,33.026694 16.3808594,32.7714844 L16.7636719,31.8349609 C17.301435,30.4905532 17.5703125,29.6223978 17.5703125,29.2304688 C17.5703125,29.0208323 17.5019538,28.8658859 17.3652344,28.765625 L17.2285156,28.6699219 C17.1829425,28.6380207 17.1601562,28.5821944 17.1601562,28.5024414 C17.1601562,28.4226884 17.1909177,28.3463545 17.2524414,28.2734375 C17.3139652,28.2005205 17.3948563,28.136719 17.4951172,28.0820312 C17.7001963,27.977213 17.9064117,27.9248047 18.1137695,27.9248047 C18.3211273,27.9248047 18.4840489,27.9475909 18.6025391,27.9931641 C18.7210292,28.0387372 18.8235673,28.10026 18.9101562,28.1777344 C19.0833342,28.3372404 19.1699219,28.5035799 19.1699219,28.6767578 C19.1699219,28.8499358 19.1471356,29.0242504 19.1015625,29.199707 C19.0559894,29.3751636 18.9990238,29.5528962 18.9306641,29.7329102 C18.8623043,29.9129241 18.7893884,30.0872387 18.7119141,30.2558594 C18.5296215,30.6477884 18.4168296,30.8881831 18.3735352,30.9770508 C18.3302407,31.0659184 18.3177082,31.0989584 18.3359375,31.0761719 C19.169926,29.9960883 19.6712231,29.3580739 19.8398438,29.1621094 C20.190757,28.7565084 20.4641917,28.4785164 20.6601562,28.328125 C21.0201841,28.0592434 21.3608382,27.9248047 21.6821289,27.9248047 C22.0034196,27.9248047 22.2597647,28.0250641 22.4511719,28.2255859 C22.6425791,28.4261078 22.7382812,28.690428 22.7382812,29.0185547 C22.7382812,29.3056655 22.6653653,29.6429017 22.5195312,30.0302734 C22.3736972,30.4176452 22.2757164,30.6888013 22.2255859,30.84375 L23.2304688,29.5175781 L23.7910156,28.8476562 C24.1282569,28.4693992 24.4244779,28.2210292 24.6796875,28.1025391 C24.9348971,27.9840489 25.1433911,27.9248047 25.3051758,27.9248047 C25.4669604,27.9248047 25.6264641,27.9544268 25.7836914,28.0136719 C25.9409188,28.072917 26.0742182,28.157226 26.1835938,28.2666016 C26.4160168,28.48991 26.5322266,28.786131 26.5322266,29.1552734 C26.5322266,29.510744 26.4501961,29.8753237 26.2861328,30.2490234 C26.1220695,30.6227232 25.9785162,30.929198 25.8554688,31.168457 C25.7324213,31.407716 25.6139329,31.6481108 25.5,31.8896484 C25.167316,32.6142614 25.0009766,33.1520165 25.0009766,33.5029297 C25.0009766,33.7490247 25.101236,33.8720703 25.3017578,33.8720703 C25.493165,33.8720703 25.6674797,33.8310551 25.824707,33.7490234 C25.9819344,33.6669918 26.0833331,33.6259766 26.1289062,33.6259766 C26.2246099,33.6259766 26.2724609,33.6738276 26.2724609,33.7695312 C26.2724609,34.1751322 26.0651062,34.5146471 25.6503906,34.7880859 C25.3723944,34.9749358 25.118328,35.0683594 24.8881836,35.0683594 C24.6580392,35.0683594 24.4723314,35.0410159 24.3310547,34.9863281 C24.1897779,34.9316404 24.062175,34.8450527 23.9482422,34.7265625 C23.6930326,34.4622383 23.5654297,34.1318379 23.5654297,33.7353516 C23.5654297,33.3388652 23.6155594,32.9742855 23.7158203,32.6416016 C23.8160812,32.3089176 23.9345696,31.9864924 24.0712891,31.6743164 C24.2080085,31.3621404 24.3458652,31.0750339 24.4848633,30.8129883 C24.6238614,30.5509427 24.7298173,30.3424487 24.8027344,30.1875 C24.9485684,29.868488 25.0214844,29.6337898 25.0214844,29.4833984 C25.0214844,29.3056632 24.9280608,29.2167969 24.7412109,29.2167969 C24.495116,29.2167969 24.0530631,29.6246704 23.4150391,30.4404297 C22.9319637,31.0738964 22.5970061,31.529621 22.4101562,31.8076172 L21.9384766,32.4912109 C21.6741523,32.9925155 21.4713549,33.4095035 21.3300781,33.7421875 L20.9814453,34.5351562 C20.8948563,34.7311208 20.8196618,34.8689775 20.7558594,34.9487305 C20.692057,35.0284835 20.6031907,35.0683594 20.4892578,35.0683594 C20.375325,35.0683594 20.2648117,35.0501304 20.1577148,35.0136719 C20.050618,34.9772134 19.9583337,34.9293623 19.8808594,34.8701172 C19.7031241,34.7379551 19.6142578,34.5978198 19.6142578,34.449707 C19.6142578,34.3015943 19.6632482,34.0987969 19.7612305,33.8413086 C19.8592127,33.5838203 19.9811191,33.2955745 20.1269531,32.9765625 L21.0839844,30.953125 C21.425783,30.2011681 21.5966797,29.7237966 21.5966797,29.5209961 C21.5966797,29.3181956 21.5032561,29.2167969 21.3164062,29.2167969 Z M21.9931641,31.1445313 C21.9977214,31.1445313 22,31.1422526 22,31.1376953 L22.0068359,31.1240234 C21.9977213,31.1331381 21.9931641,31.1399739 21.9931641,31.1445313 Z M28.7949219,34.3505859 C28.7858072,34.4189457 28.6866871,34.7789681 28.4975586,35.4306641 C28.30843,36.08236 28.1500657,36.5996075 28.0224609,36.9824219 C27.7353501,37.839197 27.4983733,38.3723948 27.3115234,38.5820312 C27.1611321,38.7460946 26.9788422,38.828125 26.7646484,38.828125 C26.5048815,38.828125 26.3066413,38.7005221 26.1699219,38.4453125 C26.128906,38.3723955 26.1083984,38.2915044 26.1083984,38.2026367 C26.1083984,38.1137691 26.1767571,37.9212254 26.3134766,37.625 C26.6735044,36.8730431 27.1542939,35.3919381 27.7558594,33.1816406 C27.997397,32.3066363 28.1569007,31.7119156 28.234375,31.3974609 L28.453125,30.5429688 C28.5944017,29.9778618 28.6775715,29.5939138 28.7026367,29.3911133 C28.7277019,29.1883128 28.7151695,29.0447595 28.6650391,28.9604492 C28.6149086,28.8761389 28.557943,28.8123375 28.4941406,28.769043 C28.4303382,28.7257485 28.371094,28.6881512 28.3164062,28.65625 C28.2617185,28.6243488 28.2389322,28.5662439 28.2480469,28.4819336 C28.2571615,28.3976233 28.2947588,28.3201501 28.3608398,28.2495117 C28.4269209,28.1788733 28.5100906,28.1184898 28.6103516,28.0683594 C28.8154307,27.9726558 29.0216461,27.9248047 29.2290039,27.9248047 C29.4363617,27.9248047 29.5992833,27.9498695 29.7177734,28 C29.8362636,28.0501305 29.9342444,28.1184892 30.0117188,28.2050781 C30.1757821,28.3828134 30.248698,28.5559887 30.2304688,28.7246094 C30.1848956,29.0755226 30.1347659,29.3763008 30.0800781,29.6269531 C30.8776082,28.4921818 31.7047483,27.9248047 32.5615234,27.9248047 C33.3408242,27.9248047 33.8626289,28.328121 34.1269531,29.1347656 C34.2180994,29.4173191 34.2636719,29.7613912 34.2636719,30.1669922 C34.2636719,30.5725932 34.2021491,30.9793274 34.0791016,31.387207 C33.9560541,31.7950867 33.7897146,32.1813133 33.5800781,32.5458984 C33.3704417,32.9104836 33.126629,33.2465805 32.8486328,33.5541992 C32.5706366,33.8618179 32.2766943,34.1295562 31.9667969,34.3574219 C31.3105436,34.8313826 30.6907581,35.0683594 30.1074219,35.0683594 C29.5240856,35.0683594 29.08659,34.829104 28.7949219,34.3505859 Z M29.8476562,31.4384766 C29.6835929,31.7574886 29.5502935,32.0764958 29.4477539,32.3955078 C29.3452143,32.7145198 29.2939453,33.0061836 29.2939453,33.2705078 C29.2939453,33.5348321 29.3509109,33.7524406 29.4648438,33.9233398 C29.5787766,34.0942391 29.7473947,34.1796875 29.9707031,34.1796875 C30.1940115,34.1796875 30.4161773,34.119304 30.637207,33.9985352 C30.8582368,33.8777663 31.0724273,33.7148448 31.2797852,33.5097656 C31.487143,33.3046865 31.6808259,33.0642917 31.8608398,32.7885742 C32.0408538,32.5128567 32.1969394,32.2200536 32.3291016,31.9101563 C32.6162124,31.2356737 32.7597656,30.5953806 32.7597656,29.9892578 C32.7597656,29.6611312 32.7164718,29.4059254 32.6298828,29.2236328 C32.5432938,29.0413402 32.4099944,28.9501953 32.2299805,28.9501953 C32.0499665,28.9501953 31.8619801,29.0196933 31.6660156,29.1586914 C31.4700511,29.2976895 31.264975,29.482258 31.0507812,29.7124023 C30.8365875,29.9425467 30.6246755,30.206867 30.4150391,30.5053711 C30.2054026,30.8038752 30.0162769,31.1149072 29.8476562,31.4384766 Z M40.5595703,33.1816406 C40.5595703,33.6009136 40.7076808,33.8105469 41.0039063,33.8105469 C41.2089854,33.8105469 41.3787428,33.7786462 41.5131836,33.7148438 C41.6476244,33.6510413 41.73763,33.6191406 41.7832031,33.6191406 C41.8789067,33.6191406 41.9267578,33.6692703 41.9267578,33.7695312 C41.9267578,34.1614603 41.7216817,34.4986965 41.3115234,34.78125 C40.8785786,35.0774754 40.4365257,35.1503914 39.9853516,35 C39.6891261,34.8951818 39.4703783,34.6695981 39.3291016,34.3232422 C39.2607418,34.1455069 39.2265625,33.9837247 39.2265625,33.8378906 C39.2265625,33.6009103 39.2493487,33.3502617 39.2949219,33.0859375 C38.8710916,33.9518272 38.3447297,34.5488265 37.7158203,34.8769531 C37.465168,35.0045579 37.1985691,35.0683594 36.9160156,35.0683594 C36.6334621,35.0683594 36.3885102,35.0102545 36.1811523,34.894043 C35.9737945,34.7778315 35.7972013,34.6171885 35.6513672,34.4121094 C35.3551417,33.9837218 35.220703,33.4459668 35.2480469,32.7988281 C35.2753908,31.9876262 35.5146462,31.1923867 35.9658203,30.4130859 C36.3805359,29.6839156 36.9046192,29.089195 37.5380859,28.6289062 C38.1715526,28.1595029 38.7639946,27.9248047 39.3154297,27.9248047 C39.8668647,27.9248047 40.3111962,28.1777318 40.6484375,28.6835938 C40.9628922,28.1777318 41.2408842,27.9248047 41.4824219,27.9248047 C41.7421888,27.9248047 41.9381504,27.9726558 42.0703125,28.0683594 C42.3209648,28.250652 42.4098311,28.4101556 42.3369141,28.546875 C41.1930281,30.8893346 40.6051434,32.3476534 40.5732422,32.921875 C40.5641276,33.0039067 40.5595703,33.0904943 40.5595703,33.1816406 Z M36.765625,33.2089844 C36.765625,33.7558621 36.941079,34.0292969 37.2919922,34.0292969 C37.5608737,34.0292969 37.8912741,33.8014346 38.2832031,33.3457031 C38.8574247,32.6757779 39.3655577,31.7734432 39.8076172,30.6386719 C39.9488939,30.2832013 40.0673823,29.9277362 40.1630859,29.5722656 C40.1448567,29.2623682 40.0149752,29.0345059 39.7734375,28.8886719 C39.6914058,28.8385414 39.5694995,28.8134766 39.4077148,28.8134766 C39.2459302,28.8134766 39.0568045,28.8727208 38.840332,28.9912109 C38.6238596,29.1097011 38.4142263,29.2714833 38.2114258,29.4765625 C38.0086253,29.6816417 37.8194996,29.924315 37.644043,30.2045898 C37.4685864,30.4848647 37.3147793,30.7890609 37.1826172,31.1171875 C36.904621,31.8190139 36.765625,32.5162726 36.765625,33.2089844 Z M47.7919922,29.2167969 C47.6507154,29.2167969 47.4501966,29.3523749 47.1904297,29.6235352 C46.9306628,29.8946954 46.7050791,30.141926 46.5136719,30.3652344 L45.9326172,31.0625 L44.8115234,32.4912109 C44.5471992,32.9925155 44.3398445,33.4095035 44.1894531,33.7421875 L43.8203125,34.5351562 C43.7246089,34.7311208 43.6414392,34.8689775 43.5708008,34.9487305 C43.5001624,35.0284835 43.4044602,35.0683594 43.2836914,35.0683594 C43.1629226,35.0683594 43.0467128,35.0467125 42.9350586,35.003418 C42.8234044,34.9601235 42.7265629,34.9042972 42.6445312,34.8359375 C42.4713533,34.6901034 42.3847656,34.5305998 42.3847656,34.3574219 C42.3847656,34.2890622 42.4348953,34.1546234 42.5351562,33.9541016 L42.7949219,33.4003906 C42.8769535,33.2363273 42.9726557,33.026694 43.0820312,32.7714844 L43.4648438,31.8349609 C44.0026069,30.4905532 44.2714844,29.6223978 44.2714844,29.2304688 C44.2714844,29.0208323 44.2031257,28.8658859 44.0664062,28.765625 L43.9296875,28.6699219 C43.8841144,28.6380207 43.8613281,28.5821944 43.8613281,28.5024414 C43.8613281,28.4226884 43.8920895,28.3463545 43.9536133,28.2734375 C44.015137,28.2005205 44.0960281,28.136719 44.1962891,28.0820312 C44.4013682,27.977213 44.6075836,27.9248047 44.8149414,27.9248047 C45.0222992,27.9248047 45.1829421,27.9475909 45.296875,27.9931641 C45.4108079,28.0387372 45.50651,28.10026 45.5839844,28.1777344 C45.752605,28.3372404 45.8369141,28.5035799 45.8369141,28.6767578 C45.8369141,28.8499358 45.8152671,29.0242504 45.7719727,29.199707 C45.7286782,29.3751636 45.6739912,29.5528962 45.6079102,29.7329102 C45.5418291,29.9129241 45.4723311,30.0895174 45.3994141,30.2626953 C45.326497,30.4358733 45.260417,30.5862624 45.2011719,30.7138672 L45.0644531,31.0078125 C45.0279946,31.0807295 45.0188801,31.1035158 45.0371094,31.0761719 C45.5429713,30.3743454 45.8756502,29.9231781 46.0351562,29.7226562 L46.5136719,29.1484375 C46.8645851,28.7382792 47.1402985,28.4671231 47.3408203,28.3349609 C47.7464213,28.0615221 48.0654285,27.9248047 48.2978516,27.9248047 C48.5302746,27.9248047 48.7262362,27.9544268 48.8857422,28.0136719 C49.0452482,28.072917 49.1842442,28.157226 49.3027344,28.2666016 C49.5533867,28.4990246 49.6787109,28.7952456 49.6787109,29.1552734 C49.6787109,29.5153013 49.5966805,29.8912741 49.4326172,30.2832031 C49.2685539,30.6751322 49.1261399,30.9930001 49.0053711,31.2368164 C48.8846023,31.4806327 48.7695318,31.7278633 48.6601562,31.9785156 C48.3183577,32.7395871 48.1474609,33.2932925 48.1474609,33.6396484 C48.1474609,33.7945971 48.2705066,33.8720703 48.5166016,33.8720703 C48.7080088,33.8720703 48.8823234,33.8310551 49.0395508,33.7490234 C49.1967781,33.6669918 49.2981769,33.6259766 49.34375,33.6259766 C49.4394536,33.6259766 49.4873047,33.6738276 49.4873047,33.7695312 C49.4873047,34.1751322 49.27995,34.5146471 48.8652344,34.7880859 C48.5872382,34.9749358 48.3320324,35.0683594 48.0996094,35.0683594 C47.8671863,35.0683594 47.6746427,35.0432945 47.5219727,34.9931641 C47.3693026,34.9430336 47.2337246,34.8632818 47.1152344,34.7539062 C46.8463528,34.5123686 46.7119141,34.1751324 46.7119141,33.7421875 C46.7119141,33.213539 46.8782535,32.5527383 47.2109375,31.7597656 C47.4524752,31.2174452 47.6233719,30.8460296 47.7236328,30.6455078 L47.9560547,30.1601562 C48.0973314,29.8684881 48.1679688,29.6383472 48.1679688,29.4697266 C48.1679688,29.3011059 48.0426445,29.2167969 47.7919922,29.2167969 Z M50.7041016,34.3369141 C50.6494138,34.1865227 50.6220703,34.0144866 50.6220703,33.8208008 C50.6220703,33.6271149 50.6551103,33.4106457 50.7211914,33.1713867 C50.7872725,32.9321277 50.8727208,32.6826185 50.9775391,32.4228516 C51.0823573,32.1630846 51.1962884,31.8964857 51.3193359,31.6230469 L51.6884766,30.8027344 C52.1624373,29.7499947 52.3378912,29.125652 52.2148438,28.9296875 C52.160156,28.8430985 52.0576179,28.7565108 51.9072266,28.6699219 C51.8525388,28.6380207 51.8251953,28.5821944 51.8251953,28.5024414 C51.8251953,28.4226884 51.8582353,28.3463545 51.9243164,28.2734375 C51.9903975,28.2005205 52.0758458,28.136719 52.1806641,28.0820312 C52.4039725,27.977213 52.6272775,27.9248047 52.8505859,27.9248047 C53.0738943,27.9248047 53.2436518,27.9487302 53.3598633,27.996582 C53.4760748,28.0444338 53.5706377,28.1048173 53.6435547,28.1777344 C53.7939461,28.3281258 53.8691406,28.4944652 53.8691406,28.6767578 C53.8691406,28.8590504 53.8395185,29.0629872 53.7802734,29.2885742 C53.7210283,29.5141613 53.6435552,29.7591133 53.5478516,30.0234375 C53.452148,30.2877617 53.3473313,30.5611965 53.2333984,30.84375 C52.9189437,31.5820349 52.7070318,32.0696603 52.5976562,32.3066406 L52.3447266,32.8330078 C52.2034498,33.1474625 52.1328125,33.3684889 52.1328125,33.4960938 C52.1328125,33.6236986 52.1533201,33.7137042 52.1943359,33.7661133 C52.2353518,33.8185224 52.309407,33.8447266 52.4165039,33.8447266 C52.5236008,33.8447266 52.6420892,33.8037113 52.7719727,33.7216797 C52.9018561,33.639648 53.0419914,33.5302741 53.1923828,33.3935547 C53.3427742,33.2568353 53.4988599,33.098471 53.6606445,32.918457 C53.8224292,32.7384431 53.9807935,32.5504567 54.1357422,32.3544922 C54.5413432,31.8531876 54.8421214,31.4225278 55.0380859,31.0625 C56.0224659,29.2486888 56.5442705,28.3007817 56.6035156,28.21875 C56.753907,28.0227855 56.9054354,27.9248047 57.0581055,27.9248047 C57.2107755,27.9248047 57.344075,27.9418944 57.4580078,27.9760742 C57.5719407,28.0102541 57.6699215,28.0592445 57.7519531,28.1230469 C57.9342457,28.255209 57.990072,28.4033195 57.9194336,28.5673828 C57.8487952,28.7314461 57.7633469,28.9570298 57.6630859,29.2441406 C56.7971962,31.7552209 56.2355156,33.3206349 55.9780273,33.9404297 C55.7205391,34.5602245 55.4960947,35.0581036 55.3046875,35.434082 C55.1132803,35.8100605 54.8888359,36.1894512 54.6313477,36.5722656 C54.3738594,36.95508 54.0992853,37.3037094 53.8076172,37.6181641 C53.1422493,38.3291051 52.5179066,38.7096352 51.9345703,38.7597656 C51.7112619,38.7779949 51.5335293,38.7460942 51.4013672,38.6640625 C51.1735015,38.5273431 51.0595703,38.3974616 51.0595703,38.2744141 C51.0595703,38.1513666 51.1632477,38.0659182 51.3706055,38.0180664 C51.5779633,37.9702146 51.7921538,37.8745124 52.0131836,37.730957 C52.2342133,37.5874016 52.4472646,37.4199228 52.6523438,37.2285156 C53.2539093,36.654294 53.721027,36.0299513 54.0537109,35.3554688 C54.3362644,34.7630179 54.5641267,34.2024766 54.7373047,33.6738281 L55.2705078,32.046875 C55.1383457,32.206381 54.9925138,32.3932281 54.8330078,32.6074219 L54.3408203,33.2636719 C53.9124328,33.8059923 53.5569676,34.1910796 53.2744141,34.4189453 C52.736651,34.8518902 52.2558615,35.0683594 51.8320312,35.0683594 C51.2669243,35.0683594 50.8909515,34.8245467 50.7041016,34.3369141 Z M20.0942698,5.16046478 L2.57406518,24.1474381 L0.369294193,22.1129885 L19.9993452,0.839535223 L30.5358012,11.2967588 L50.3415754,3.0764366 L68.8185876,40.7734126 L66.1247718,42.0937749 L48.8882945,6.92775005 L29.8405499,14.8334545 L20.0942698,5.16046478 Z" id="Company"></path>
            </g>
        </g>
    </g>
</svg>